<svg xmlns="http://www.w3.org/2000/svg" version="1.0" width="512px" height="512px" fill="#2e7d32" viewBox="0 0 6900 6900" preserveAspectRatio="xMidYMid meet">
    <path d="M3407 6533 c-15 -43 -162 -496 -327 -1008 -166 -511 -331 -1021 -368 -1132 l-66 -203 -1273 -2 -1272 -3 1028 -747 1029 -748 -70 -212 c-184 -566 -708 -2195 -708 -2201 0 -4 42 24 93 61 50 37 256 187 457 332 201 145 617 446 925 670 308 223 565 409 572 413 7 4 176 -113 420 -290 962 -700 1643 -1192 1643 -1186 0 6 -338 1055 -614 1907 -86 263 -157 485 -158 492 -3 12 407 314 1625 1199 l427 310 -1273 3 -1273 2 -137 423 c-401 1237 -646 1990 -650 1994 -3 2 -16 -31 -30 -74z"/>
</svg>