<svg xmlns="http://www.w3.org/2000/svg" height="512px" preserveAspectRatio="xMidYMid meet" viewBox="0 0 512 512" width="512px" fill="#2e7d32"><path d="m1548 4019-3-531-35 61c-19 33-38 57-42 53s-336-576-737-1272l-731-1265 1261-3 1261-2 90-84c280-265 639-406 1027-406 679 0 1286 483 1439 1146 141 608-103 1232-615 1574-155 104-316 175-500 220l-43 11v514 515h-1185-1185zm2192-649v-1000h-1005-1005v1000 1000h1005 1005zm393-103c484-197 807-681 807-1210 0-400-190-788-504-1031-159-122-303-192-501-242-124-32-357-43-486-25-550 80-989 493-1106 1041-12 60-18 129-18 235v150l798 3 797 2v574 575l64-19c35-10 102-33 149-53zm-2619-81 36-64v-466-466h269 269l25-42c21-37 25-60 30-163 13-246 87-491 207-687 17-28 29-52 27-54s-468-3-1035-2l-1032 3 578 1002c317 551 580 1002 584 1003 3 0 22-29 42-64z" transform="matrix(.1 0 0 -.1 0 512)"/></svg>