<svg xmlns="http://www.w3.org/2000/svg" height="512px" preserveAspectRatio="xMidYMid meet" viewBox="0 0 512 512" width="512px" fill="#f9a825"><path d="m2365 5114c-363-37-636-113-930-258-279-138-479-282-692-497-211-213-343-400-479-674-127-257-203-507-246-810-17-118-17-512 0-630 59-411 189-763 406-1095 88-134 189-257 319-389 213-215 413-359 692-497 255-126 510-203 810-246 118-17 512-17 630 0 300 43 555 120 810 246 279 138 479 282 692 497 403 408 641 895 725 1484 17 118 17 512 0 630-43 303-119 553-246 810-136 274-268 461-479 674-213 215-413 359-692 497-248 122-484 196-765 239-101 15-468 28-555 19z" transform="matrix(.1 0 0 -.1 0 512)"/></svg>