<svg xmlns="http://www.w3.org/2000/svg" version="1.0" width="512.000000px" height="512.000000px" viewBox="0 0 512.000000 512.000000" preserveAspectRatio="xMidYMid meet"><g transform="translate(0.000000,512.000000) scale(0.100000,-0.100000)" fill="#FFFFFF" stroke="none"><path d="M1548 4019 l-3 -531 -35 61 c-19 33 -38 57 -42 53 -4 -4 -336 -576 -737 -1272 l-731 -1265 1261 -3 1261 -2 90 -84 c280 -265 639 -406 1027 -406 679 0 1286 483 1439 1146 141 608 -103 1232 -615 1574 -155 104 -316 175 -500 220 l-43 11 0 514 0 515 -1185 0 -1185 0 -2 -531z m2192 -649 l0 -1000 -1005 0 -1005 0 0 1000 0 1000 1005 0 1005 0 0 -1000z m393 -103 c484 -197 807 -681 807 -1210 0 -400 -190 -788 -504 -1031 -159 -122 -303 -192 -501 -242 -124 -32 -357 -43 -486 -25 -550 80 -989 493 -1106 1041 -12 60 -18 129 -18 235 l0 150 798 3 797 2 0 574 0 575 64 -19 c35 -10 102 -33 149 -53z m-2619 -81 l36 -64 0 -466 0 -466 269 0 269 0 25 -42 c21 -37 25 -60 30 -163 13 -246 87 -491 207 -687 17 -28 29 -52 27 -54 -2 -2 -468 -3 -1035 -2 l-1032 3 578 1002 c317 551 580 1002 584 1003 3 0 22 -29 42 -64z"/></g></svg>